<?xml version="1.0" encoding="utf-8"?>
<!-- Generator: Adobe Illustrator 24.0.3, SVG Export Plug-In . SVG Version: 6.00 Build 0)  -->
<svg version="1.1" id="Layer_1" xmlns="http://www.w3.org/2000/svg" xmlns:xlink="http://www.w3.org/1999/xlink" x="0px" y="0px"
	 viewBox="0 0 1366 768" style="enable-background:new 0 0 1366 768;" xml:space="preserve">
<style type="text/css">
	.st0{opacity:0.5;}
	.st1{fill:#8FBDE6;}
	.st2{fill:#FFFFFF;}
</style>
<g>
	<g class="st0">
		<g>
			<rect x="302.43" y="129.93" class="st1" width="4.51" height="126.29"/>
			<rect x="294.53" y="152.49" class="st1" width="20.3" height="86.83"/>
		</g>
		<g>
			<rect x="337.03" y="181.89" class="st1" width="4.51" height="169.31"/>
			<rect x="329.14" y="219.56" class="st1" width="20.29" height="69.55"/>
		</g>
		<g>
			<rect x="579.26" y="234.25" class="st1" width="4.51" height="169.31"/>
			<rect x="571.37" y="238.84" class="st1" width="20.29" height="146.72"/>
		</g>
		<g>
			<rect x="371.63" y="240.99" class="st1" width="4.51" height="50.14"/>
			<rect x="363.74" y="252.49" class="st1" width="20.29" height="21.73"/>
		</g>
		<g>
			<rect x="406.23" y="247.36" class="st1" width="4.51" height="34.77"/>
			<rect x="398.34" y="255.6" class="st1" width="20.29" height="7.25"/>
		</g>
		<g>
			<rect x="440.84" y="224.11" class="st1" width="4.51" height="65.97"/>
			<rect x="432.95" y="235.89" class="st1" width="20.3" height="45.36"/>
		</g>
		<g>
			<rect x="475.45" y="258.62" class="st1" width="4.51" height="124.11"/>
			<rect x="467.56" y="286.22" class="st1" width="20.29" height="72.98"/>
		</g>
		<g>
			<rect x="510.06" y="297" class="st1" width="4.5" height="84.25"/>
			<rect x="502.16" y="317.25" class="st1" width="20.29" height="21.57"/>
		</g>
		<g>
			<rect x="544.66" y="341.75" class="st1" width="4.51" height="64.7"/>
			<rect x="536.77" y="366.72" class="st1" width="20.29" height="14.27"/>
		</g>
		<g>
			<rect x="613.87" y="129.93" class="st1" width="4.51" height="126.29"/>
			<rect x="605.97" y="152.49" class="st1" width="20.3" height="86.83"/>
		</g>
		<g>
			<rect x="648.48" y="164.44" class="st1" width="4.51" height="169.31"/>
			<rect x="640.59" y="202.1" class="st1" width="20.29" height="69.55"/>
		</g>
		<g>
			<rect x="683.08" y="206.08" class="st1" width="4.51" height="50.14"/>
			<rect x="675.19" y="217.58" class="st1" width="20.29" height="21.73"/>
		</g>
		<g>
			<rect x="717.68" y="212.45" class="st1" width="4.51" height="34.77"/>
			<rect x="709.79" y="220.69" class="st1" width="20.29" height="7.25"/>
		</g>
		<g>
			<rect x="752.29" y="171.75" class="st1" width="4.51" height="65.97"/>
			<rect x="744.4" y="183.53" class="st1" width="20.3" height="45.36"/>
		</g>
		<g>
			<rect x="786.9" y="206.25" class="st1" width="4.51" height="124.11"/>
			<rect x="779.01" y="233.86" class="st1" width="20.29" height="72.98"/>
		</g>
		<g>
			<rect x="821.51" y="244.64" class="st1" width="4.5" height="84.25"/>
			<rect x="813.61" y="264.89" class="st1" width="20.29" height="21.57"/>
		</g>
		<g>
			<rect x="856.11" y="306.84" class="st1" width="4.51" height="64.7"/>
			<rect x="848.22" y="331.81" class="st1" width="20.29" height="14.27"/>
		</g>
		<g>
			<rect x="890.72" y="245.25" class="st1" width="4.51" height="126.29"/>
			<rect x="882.82" y="262.17" class="st1" width="20.3" height="86.83"/>
		</g>
		<g>
			<rect x="925.32" y="167.73" class="st1" width="4.51" height="169.31"/>
			<rect x="917.43" y="229.83" class="st1" width="20.29" height="69.55"/>
		</g>
		<g>
			<rect x="959.93" y="245.25" class="st1" width="4.51" height="50.14"/>
			<rect x="952.04" y="262.17" class="st1" width="20.29" height="21.73"/>
		</g>
		<g>
			<rect x="994.53" y="254.26" class="st1" width="4.51" height="34.77"/>
			<rect x="986.64" y="273.54" class="st1" width="20.29" height="7.25"/>
		</g>
		<g>
			<rect x="1029.13" y="263.76" class="st1" width="4.51" height="65.97"/>
			<rect x="1021.24" y="272.6" class="st1" width="20.3" height="45.36"/>
		</g>
		<g>
			<rect x="1063.75" y="171.11" class="st1" width="4.51" height="124.11"/>
			<rect x="1055.86" y="194.64" class="st1" width="20.29" height="72.98"/>
		</g>
	</g>
	<g>
		<g>
			<g>
				<path class="st2" d="M300.49,596.05c-56.42,0-65.88-45.26-65.88-90.19c0-47.97,10.81-90.19,68.91-90.19
					c15.53,0,35.8,3.04,49.32,5.74l3.72-21.62c-15.2-3.04-34.45-6.08-52.7-6.08c-74.31,0-94.58,49.66-94.58,112.15
					c0,62.83,20.61,112.15,90.53,112.15c21.62,0,45.26-4.73,65.54-14.19l-8.11-19.93C340.01,590.65,320.08,596.05,300.49,596.05z"/>
			</g>
			<g>
				<path class="st2" d="M454.16,455.19c-19.93,0-36.49,8.11-48.98,16.55v-74.65h-23.65v217.54h23.65V491.68
					c11.49-7.77,28.37-15.54,45.27-15.54c18.92,0,30.06,9.46,30.06,32.77v105.73h23.65V506.54
					C504.15,472.08,484.56,455.19,454.16,455.19z"/>
			</g>
			<g>
				<path class="st2" d="M588.57,455.19c-18.91,0-38.17,4.39-52.35,8.45l4.72,19.59c13.18-3.71,31.08-7.09,45.94-7.09
					c21.95,0,36.14,7.43,36.14,33.1v15.2c-11.14-1.69-24.32-2.7-34.46-2.7c-38.85,0-64.51,14.86-64.51,48.31
					c0,32.09,23.98,47.97,52.7,47.97c20.27,0,36.82-7.77,48.98-17.22l2.36,13.85h18.58V506.88
					C646.67,468.03,621.34,455.19,588.57,455.19z M623.02,583.22c-11.82,9.46-28.04,15.2-42.56,15.2c-18.91,0-32.09-9.8-32.09-29.05
					c0-21.28,16.55-29.05,40.53-29.05c8.78,0,22.63,1.01,34.11,2.02V583.22z"/>
			</g>
			<g>
				<path class="st2" d="M825.31,597.07c-14.18,0-17.91-7.77-17.91-23.98v-94.92H852v-19.59h-44.59v-45.6h-20.94l-1.69,46.62
					l-20.63,1.18l0.38-3.54c-4.39-1.01-11.49-2.03-17.91-2.03c-17.23,0-31.75,6.76-45.94,22.29l-2.7-18.91h-18.24v156.06h23.65
					V496.74c10.81-12.16,25-19.26,42.56-19.26c5.4,0,10.13,0.68,16.21,1.69l0.11-1.01h21.5v96.27c0,31.08,14.52,43.58,38.84,43.58
					c12.5,0,23.99-3.38,32.77-7.43l-6.42-18.92C839.84,595.38,832.08,597.07,825.31,597.07z"/>
			</g>
			<polygon class="st1" points="932.51,564.11 932.51,529.54 980.92,529.54 996.61,498.42 985.42,476.74 932.51,476.74 
				932.51,446.28 969.7,446.28 942.45,393.47 869.57,393.47 869.57,616.92 936.85,616.92 963.48,564.11 			"/>
			<polygon class="st1" points="1097.48,500.55 1150.18,393.47 1137.18,393.47 1082.05,393.47 1061.2,444.51 1054.39,429.37 
				1038.23,393.47 1025.22,393.47 1017.69,393.47 968.45,393.47 995.7,446.28 1022.61,498.42 1011.04,521.37 1006.92,529.54 
				989.49,564.11 962.86,616.92 1017.31,616.92 1020.22,616.92 1030.31,616.92 1052.3,568.18 1058.71,553.98 1087.95,616.92 
				1144,616.92 1157,616.92 			"/>
		</g>
	</g>
</g>
</svg>
